<svg xmlns="http://www.w3.org/2000/svg" data-name="Layer 1" viewBox="0 0 24 30" x="0px" y="0px"><title>rounded</title><path d="M12,2.76891a.993.993,0,0,0-.82487.43468l-2.50081,3.649a1,1,0,0,1-.54212.39387L3.889,8.49726a1,1,0,0,0-.5098,1.569l2.6976,3.506a1,1,0,0,1,.20708.6373l-.12163,4.422a.9979.9979,0,0,0,1.33467.96969l4.168-1.48215a1.00016,1.00016,0,0,1,.6701,0l4.168,1.48215a.9979.9979,0,0,0,1.33467-.96969l-.12163-4.422a1,1,0,0,1,.20708-.6373l2.6976-3.506a1,1,0,0,0-.5098-1.569L15.8678,7.24644a1,1,0,0,1-.54212-.39387l-2.50081-3.649A.993.993,0,0,0,12,2.76891Z"/><text x="0" y="39" fill="#6b7280" font-size="5px" font-weight="bold" font-family="'Helvetica Neue', Helvetica, Arial-Unicode, Arial, Sans-serif">Created by Sophia</text><text x="0" y="44" fill="#6b7280" font-size="5px" font-weight="bold" font-family="'Helvetica Neue', Helvetica, Arial-Unicode, Arial, Sans-serif">from the Noun Project</text></svg>